<?xml version="1.0" encoding="UTF-8"?>
<svg id="Layer_1" data-name="Layer 1" xmlns="http://www.w3.org/2000/svg" width="99.19" height="85.46" viewBox="0 0 99.19 85.46">
  <line x1="65.46" y1="7.22" x2="53.82" y2="7.22" fill="none" stroke="#010101" stroke-linecap="round" stroke-linejoin="round" stroke-width="2.8"/>
  <path d="M7.49,39.5c0,2.07-1.68,3.75-3.75,3.75s-3.75-1.68-3.75-3.75,1.68-3.75,3.75-3.75,3.75,1.68,3.75,3.75Z" fill="#010101"/>
  <path d="M28.69,23.73c0,2.07-1.68,3.75-3.75,3.75s-3.75-1.68-3.75-3.75,1.68-3.75,3.75-3.75,3.75,1.68,3.75,3.75Z" fill="#5fccf5" stroke="#010101" stroke-linecap="round" stroke-linejoin="round" stroke-width="2.8"/>
  <polyline points="39.37 32.16 49.64 14.83 59.67 32.63" fill="#eeea55" stroke="#010101" stroke-linecap="round" stroke-linejoin="round" stroke-width="3.1"/>
  <path d="M80.76,46.71c-21.38-21.36-42.75-21.1-64.13,0" fill="#fff" stroke="#010101" stroke-linecap="round" stroke-linejoin="round" stroke-width="3.1"/>
  <path d="M16.63,46.71c12.92,16.52,43.02,22.82,64.13,0" fill="#fff" stroke="#010101" stroke-linecap="round" stroke-linejoin="round" stroke-width="3.1"/>
  <path d="M59.64,43.03c0,6.08-4.93,11.01-11.01,11.01s-11.01-4.93-11.01-11.01,4.93-11.01,11.01-11.01,11.01,4.93,11.01,11.01Z" fill="#5fccf5" stroke="#010101" stroke-linecap="round" stroke-linejoin="round" stroke-width="3.1"/>
  <path d="M71.9,54.32c1.26-.65,3.24,5.28,7.77,13.79H18.07l7.77-13.12c5.5,3.54,13.53,6.55,22.9,6.58s17.83-4.51,23.15-7.25Z" fill="#eeea55" stroke="#010101" stroke-linecap="round" stroke-linejoin="round" stroke-width="3.1"/>
  <path d="M54.95,43.03c0,3.49-2.83,6.31-6.31,6.31s-6.31-2.83-6.31-6.31,2.83-6.31,6.31-6.31,6.31,2.83,6.31,6.31Z" fill="#010101"/>
  <path d="M97.87,46.21s.08-.04.12-.05c.78-.34,1.29-1.16,1.19-2.05-.1-.9-.79-1.58-1.63-1.73-.03,0-.06-.02-.09-.02-.32-.05-1.91-.38-2.25-2.33,0-.02,0-.03-.01-.04-.02-.08-.04-.15-.06-.22-.02-.05-.03-.11-.05-.16-.03-.06-.06-.12-.09-.18-.03-.05-.06-.11-.09-.16-.04-.05-.08-.1-.12-.15-.04-.05-.08-.1-.12-.14-.05-.05-.1-.09-.15-.13-.05-.04-.09-.08-.14-.11-.05-.04-.12-.07-.17-.1-.06-.03-.11-.06-.17-.09-.05-.02-.11-.04-.17-.06-.07-.02-.14-.04-.21-.06-.02,0-.03,0-.05-.01-.04,0-.09,0-.13,0-.07,0-.14-.02-.21-.02-.07,0-.14,0-.21.01-.05,0-.09,0-.14.01-.02,0-.03.01-.05.01-.07.01-.13.04-.2.06-.06.02-.13.04-.19.06-.05.02-.1.05-.15.08-.07.03-.13.07-.19.11-.04.03-.08.06-.12.1-.06.05-.12.09-.17.15-.04.04-.07.09-.11.13-.04.05-.09.11-.13.16-.03.05-.06.1-.09.16-.03.06-.07.12-.1.19-.02.05-.04.11-.05.16-.02.07-.05.14-.06.22,0,.01,0,.03-.01.04-.34,1.94-1.92,2.28-2.25,2.33-.04,0-.08.02-.12.03-.08.01-.15.03-.23.05-.06.02-.12.05-.18.07-.05.02-.11.04-.16.07-.08.04-.15.09-.22.15-.02.02-.05.03-.07.05-.52.41-.83,1.08-.75,1.79.11.92.81,1.61,1.68,1.74.02,0,.03,0,.04.01.32.05,1.91.38,2.25,2.33,0,.02,0,.03.01.05.01.06.03.11.04.17.02.07.04.13.07.2.02.05.04.09.07.14.03.06.07.13.11.19.03.04.06.08.09.12.04.06.09.11.14.17.04.04.07.07.11.11.05.05.11.09.17.13.04.03.08.06.12.09.07.04.14.08.21.11.04.02.07.04.11.05.22.09.46.13.71.13h0c.25,0,.49-.05.71-.13.04-.02.08-.04.12-.05.07-.03.14-.07.21-.11.04-.03.09-.06.13-.09.06-.04.11-.08.17-.13.04-.04.08-.07.11-.11.05-.05.1-.11.14-.16.03-.04.06-.08.09-.12.04-.06.07-.12.11-.19.02-.05.05-.09.07-.14.03-.06.05-.13.07-.19.02-.06.03-.11.04-.17,0-.02.01-.03.01-.05.34-1.94,1.92-2.28,2.25-2.33.02,0,.03,0,.05-.01.07-.01.14-.03.21-.05.06-.01.11-.03.17-.05Z" fill="#010101"/>
  <line x1="59.64" y1="13.04" x2="59.64" y2="1.4" fill="none" stroke="#010101" stroke-linecap="round" stroke-linejoin="round" stroke-width="2.8"/>
  <path d="M37.65,81.71c0,2.07-1.68,3.75-3.75,3.75s-3.75-1.68-3.75-3.75,1.68-3.75,3.75-3.75,3.75,1.68,3.75,3.75Z" fill="#010101"/>
  <circle cx="50.52" cy="39.5" r="2.33" fill="#fff"/>
</svg>