<?xml version="1.0" encoding="UTF-8"?>
<svg id="Layer_1" data-name="Layer 1" xmlns="http://www.w3.org/2000/svg" width="67.23" height="56.38" viewBox="0 0 67.23 56.38">
  <polyline points="24.3 18.89 34.57 1.55 44.59 19.35" fill="#eeea55" stroke="#010101" stroke-linecap="round" stroke-linejoin="round" stroke-width="3.1"/>
  <path d="M65.68,33.43C44.3,12.08,22.93,12.33,1.55,33.43" fill="#fff" stroke="#010101" stroke-linecap="round" stroke-linejoin="round" stroke-width="3.1"/>
  <path d="M1.55,33.43c12.92,16.52,43.02,22.82,64.13,0" fill="#fff" stroke="#010101" stroke-linecap="round" stroke-linejoin="round" stroke-width="3.1"/>
  <path d="M44.57,29.75c0,6.08-4.93,11.01-11.01,11.01s-11.01-4.93-11.01-11.01,4.93-11.01,11.01-11.01,11.01,4.93,11.01,11.01Z" fill="#5fccf5" stroke="#010101" stroke-linecap="round" stroke-linejoin="round" stroke-width="3.1"/>
  <path d="M56.82,41.04c1.26-.65,3.24,5.28,7.77,13.79H3l7.77-13.12c5.5,3.54,13.53,6.55,22.9,6.58s17.83-4.51,23.15-7.25Z" fill="#eeea55" stroke="#010101" stroke-linecap="round" stroke-linejoin="round" stroke-width="3.1"/>
  <path d="M39.87,29.75c0,3.49-2.83,6.31-6.31,6.31s-6.31-2.83-6.31-6.31,2.83-6.31,6.31-6.31,6.31,2.83,6.31,6.31Z" fill="#010101"/>
  <circle cx="35.45" cy="26.22" r="2.33" fill="#fff"/>
</svg>